# xmcd CD database file
#
# Track frame offsets:
#	150
#	121913
#	235438
#
# Disc length: 4651 seconds
#
# Revision: 0
# Processed by: cddbd v1.5.1PL0 Copyright (c) Steve Scherf et al.
# Submitted via: CDex 1.51
#
DISCID=20122903
DTITLE=Various Artist - Dance Operation - Volume 1
DYEAR=1998
DGENRE=Mix
TTITLE0=The Dance Operation 1
TTITLE1=The Smooth Zone 1
TTITLE2=Sometin´ Soft,Sweet and Slow
EXTD=YEAR: 1998
EXTT0=
EXTT1=
EXTT2=
PLAYORDER=
